<svg xmlns="http://www.w3.org/2000/svg" width="501" height="399" fill="none"><path fill="#F5F5F5" d="M73.239 360.359c97.651 51.014 255.985 51.014 353.637 0s97.651-133.726 0-184.751c-97.652-51.026-255.941-51.015-353.637 0s-97.607 133.737 0 184.751"/><path fill="#E0E0E0" d="m46.016 276.698-31.743-18.322V190.29l31.743 18.333z"/><path fill="#EBEBEB" d="m46.016 208.623 45.353-26.183v68.075l-45.353 26.183z"/><path fill="#F5F5F5" d="m91.37 182.441-45.354 26.182-31.743-18.333 45.354-26.183z"/><path fill="#E0E0E0" d="m50.562 211.236 36.276-20.946.837.48v25.222l-36.287 20.946-.837-.48z"/><path fill="#F5F5F5" d="m51.387 211.727 36.287-20.957v25.222l-36.287 20.946z"/><path fill="#E0E0E0" d="m65.612 207.786 6.174-3.562c.793-.469 1.44-.257 1.44.469a2.89 2.89 0 0 1-1.44 2.144l-6.174 3.561c-.804.469-1.452.257-1.452-.468a2.89 2.89 0 0 1 1.452-2.144M49.723 243.146 85.999 222.2v25.223l.837.48-36.287 20.946-.826-.48z"/><path fill="#F5F5F5" d="m50.55 243.626 36.288-20.946v25.222L50.55 268.849z"/><path fill="#E0E0E0" d="m64.775 239.696 6.23-3.551c.804-.468 1.451-.256 1.451.469a2.89 2.89 0 0 1-1.451 2.144l-6.175 3.562c-.803.469-1.451.257-1.451-.469a2.88 2.88 0 0 1 1.396-2.155M46.016 204.693 14.273 186.36v-68.075l31.743 18.322z"/><path fill="#EBEBEB" d="m46.016 136.607 45.353-26.182v68.086l-45.353 26.182z"/><path fill="#F5F5F5" d="m91.37 110.425-45.354 26.182-31.743-18.322 45.354-26.182z"/><path fill="#E0E0E0" d="m50.55 139.231 36.288-20.946.837.48v25.223l-36.287 20.946-.837-.492z"/><path fill="#E0E0E0" d="m65.612 135.77 6.163-3.562c.804-.458 1.451-.246 1.451.48a2.9 2.9 0 0 1-1.451 2.144l-6.163 3.562c-.804.457-1.452.256-1.452-.469a2.9 2.9 0 0 1 1.452-2.155M49.723 171.141l36.276-20.946v25.211l.837.481-36.287 20.946-.826-.481z"/><path fill="#F5F5F5" d="m50.55 171.621 36.288-20.946v25.211L50.55 196.832z"/><path fill="#E0E0E0" d="m64.776 167.68 6.23-3.561c.793-.458 1.451-.246 1.451.48a2.95 2.95 0 0 1-1.451 2.144l-6.23 3.528c-.804.458-1.452.245-1.452-.469a2.92 2.92 0 0 1 1.452-2.122M50.55 139.231l36.288-20.946v25.211L50.55 164.442z"/><path fill="#E0E0E0" d="m104.98 130.746-19.863-11.467v22.219l19.863 11.455z"/><path fill="#EBEBEB" d="M64.16 168.038v-31.431l7.782-4.51 1.284 1.898 22.677-13.097v28.806z"/><path fill="#F5F5F5" d="m64.16 168.038 2.267-27.5 31.742-18.323-2.266 27.489z"/><path fill="#EBEBEB" d="m68.693 151.692-17.306-9.993v22.219l17.306 9.981z"/><path fill="#F5F5F5" d="m68.691 149.704 36.288-20.946v25.211l-36.288 20.946z"/><path fill="#E0E0E0" d="m82.916 145.763 6.163-3.562c.804-.458 1.452-.245 1.452.48a2.92 2.92 0 0 1-1.452 2.144l-6.163 3.562c-.804.458-1.451.245-1.451-.469a2.92 2.92 0 0 1 1.451-2.155M68.694 149.704l-1.206-.692v25.211l1.206.692z"/><path fill="#EBEBEB" d="m67.488 149.012 36.276-20.957 1.217.703-36.287 20.946z"/><path fill="#E0E0E0" d="m421.035 235.453-31.754-18.333v-68.075l31.754 18.323z"/><path fill="#EBEBEB" d="m421.035 167.368 45.353-26.183v68.086l-45.353 26.182z"/><path fill="#F5F5F5" d="m466.389 141.185-45.354 26.182-31.754-18.322 45.365-26.193z"/><path fill="#E0E0E0" d="m425.566 169.991 36.288-20.946.837.481-.011 25.211-36.276 20.946-.838-.48z"/><path fill="#F5F5F5" d="m426.406 170.471 36.287-20.946-.011 25.212-36.276 20.946z"/><path fill="#E0E0E0" d="m440.631 166.53 6.163-3.562c.804-.457 1.452-.245 1.452.469a2.906 2.906 0 0 1-1.452 2.155l-6.163 3.562c-.804.458-1.451.246-1.451-.469a2.912 2.912 0 0 1 1.451-2.155M424.73 201.902l36.288-20.958v25.223l.837.48-36.287 20.946-.838-.48z"/><path fill="#F5F5F5" d="m425.566 202.382 36.288-20.946v25.211l-36.288 20.946z"/><path fill="#E0E0E0" d="m439.791 198.441 6.175-3.562c.792-.458 1.44-.246 1.44.469a2.94 2.94 0 0 1-1.44 2.155l-6.175 3.562c-.804.457-1.451.245-1.451-.481a2.91 2.91 0 0 1 1.451-2.143"/><path fill="#BA68C8" d="M119.017 306.609s.123-17.708-11.042-30.984c-9.882-11.757-15.14-19.215-12.025-22.654s9.814-4.265 18.847 5.248c9.032 9.513 9.736 35.863 8.485 41.825z"/><path fill="#000" d="M119.017 306.609s.123-17.708-11.042-30.984c-9.882-11.757-15.14-19.215-12.025-22.654s9.814-4.265 18.847 5.248c9.032 9.513 9.736 35.863 8.485 41.825z" opacity=".2"/><path fill="#fff" d="M120.895 287.572a.56.56 0 0 1-.547-.435c-3.908-18.278-13.935-28.382-19.573-32.781a.56.56 0 0 1-.101-.782.57.57 0 0 1 .376-.213.57.57 0 0 1 .417.113c5.75 4.466 15.989 14.805 19.975 33.428a.547.547 0 0 1-.425.659z"/><path fill="#BA68C8" d="m118.593 313.185-4.544 2.624a8.22 8.22 0 0 0-6.119-5.236c-4.968-1.117-10.127-.927-13.61-5.237-3.484-4.31.76-8.999 0-12.17s-1.25-4.086-7.48-7.257-8.687-8.43-3.998-11.992c4.69-3.562 12.282-.949 16.882 2.233 4.086 2.791 7.972 3.528 12.539 4.098s12.002 3.104 10.863 13.711a83.5 83.5 0 0 1-4.533 19.226"/><path fill="#fff" d="M101.153 299.251a.57.57 0 0 1-.536-.39.57.57 0 0 1 .369-.704c.402-.123 10.049-3.182 14.146.101a.556.556 0 0 1-.296.957.56.56 0 0 1-.396-.086c-3.618-2.903-13.019.067-13.119.1z"/><path fill="#fff" d="M119.094 312.337a.543.543 0 0 1-.547-.491c-2.49-23.514-30.816-34.668-31.095-34.78a.55.55 0 0 1-.362-.509.6.6 0 0 1 .038-.217.57.57 0 0 1 .715-.324c.301.123 29.253 11.512 31.81 35.729a.56.56 0 0 1-.492.614z"/><path fill="#BA68C8" d="M396.808 297.744c.123-.391 4.913-25.044 0-42.529-4.466-16.033-10.294-21.95-18.601-23.257-8.307-1.306-11.913 4.679-7.503 12.784s15.028 18.859 17.63 36.969a870 870 0 0 1 1.965 13.934z"/><path fill="#000" d="M396.808 297.744c.123-.391 4.913-25.044 0-42.529-4.466-16.033-10.294-21.95-18.601-23.257-8.307-1.306-11.913 4.679-7.503 12.784s15.028 18.859 17.63 36.969a870 870 0 0 1 1.965 13.934z" opacity=".2"/><path fill="#fff" d="M394.006 283.586a.555.555 0 0 1-.495-.375.6.6 0 0 1-.03-.217c1.117-19.963-5.404-37.783-17.094-46.525a.56.56 0 0 1-.111-.782.567.567 0 0 1 .781-.111c11.981 8.932 18.702 27.154 17.53 47.485a.56.56 0 0 1-.581.525"/><path fill="#BA68C8" d="M409.661 310.584c-.636-4.589 1.999-11.467 8.263-13.097s9.055-5.225 6.799-9.155-1.73-7.537 3.953-9.167 10.662-4.466 7.391-10.473c-2.378-4.343-2.903-7.157 2.925-15.709 4.835-7.102.882-11.266-5.169-10.485-6.052.782-9.792 7.995-13.577 9.201-3.785 1.205-4.656-5.226-9.647-2.345s-4.689 10.261-4.846 15.408c-.156 5.147-.491 6.308-5.002 5.683-4.51-.625-8.932.112-8.831 11.02.078 9.357 5.069 20.946 5.069 20.946z"/><path fill="#fff" d="M401.745 303.606h-.056a.57.57 0 0 1-.502-.626c3.148-28.125 27.288-51.851 33.585-56.663a.56.56 0 0 1 .897.521.56.56 0 0 1-.216.372c-6.219 4.745-30.046 28.159-33.15 55.893a.57.57 0 0 1-.184.357.57.57 0 0 1-.374.146"/><path fill="#fff" d="M412.755 273.538a.57.57 0 0 1-.525-.357.577.577 0 0 1 .335-.726c8.999-3.35 19.204-1.764 19.64-1.697a.557.557 0 0 1 .457.636.58.58 0 0 1-.636.469c-.101 0-10.35-1.608-19.07 1.641a.6.6 0 0 1-.201.034M404.738 290.442a.55.55 0 0 1-.413-.19 32.9 32.9 0 0 1-7.358-15.263.57.57 0 0 1 .103-.415.562.562 0 0 1 .929.042.6.6 0 0 1 .074.206 32.26 32.26 0 0 0 7.09 14.682.572.572 0 0 1-.122.844.57.57 0 0 1-.303.094"/><path fill="#BA68C8" d="M118.594 140.381v172.816l176.88-102.117-.011-157.107-131.516 75.935-4.544-13.097z"/><path fill="#000" d="M118.594 140.381v172.816l176.88-102.117-.011-157.107-131.516 75.935-4.544-13.097z" opacity=".7"/><path fill="#E0E0E0" d="m118.594 313.197 9.066-157.106L304.54 53.973l-9.066 157.107z"/><path fill="#BA68C8" d="m118.594 313.197 13.599-154.482 176.88-102.13-13.599 154.495z"/><path fill="#000" d="m118.594 313.197 13.599-154.482 176.88-102.13-13.599 154.495z" opacity=".7"/><path fill="#BA68C8" d="M145.801 156.091v172.827l176.88-102.129V69.683l-131.527 75.935-4.533-13.097z"/><path fill="#000" d="M145.801 156.091v172.827l176.88-102.129V69.683l-131.527 75.935-4.533-13.097z" opacity=".5"/><path fill="#E0E0E0" d="m145.801 328.918 9.066-157.118 176.88-102.117-9.066 157.106z"/><path fill="#BA68C8" d="M145.801 328.918 159.4 174.424 336.28 72.295 322.681 226.79z"/><path fill="#000" d="M145.801 328.918 159.4 174.424 336.28 72.295 322.681 226.79z" opacity=".5"/><path fill="#E0E0E0" d="M295.424 383.906c-31.754-18.333-61.208-38.263-74.651-61.643l40.865-23.592z"/><path fill="#BA68C8" d="M177.543 174.424V347.24l176.88-102.118V88.016l-131.527 75.935-4.533-13.097z"/><path fill="#000" d="M177.543 174.424V347.24l176.88-102.118V88.016l-131.527 75.935-4.533-13.097z" opacity=".2"/><path fill="#fff" d="M228.502 225.516c-.447 0-.514-.514-.514-.815V77.32a3.7 3.7 0 0 1 1.653-2.859L357.304.771c.175-.11.375-.171.581-.18.447 0 .513.514.513.816v147.381a3.71 3.71 0 0 1-1.652 2.87l-127.664 73.69a1.2 1.2 0 0 1-.58.168"/><path fill="#BA68C8" d="M357.818 1.106a1 1 0 0 1 0 .245v147.382a3.2 3.2 0 0 1-1.373 2.389l-127.664 73.691-.223.1a.7.7 0 0 1 0-.245V77.286a3.2 3.2 0 0 1 1.373-2.378l127.664-73.69q.107-.075.234-.101M357.896 0c-.304.01-.6.098-.859.257l-127.664 73.69a4.3 4.3 0 0 0-1.932 3.35V224.68c0 .871.436 1.373 1.117 1.373.304-.008.601-.097.86-.257l127.663-73.69a4.3 4.3 0 0 0 1.369-1.443 4.3 4.3 0 0 0 .563-1.907V1.374c0-.871-.436-1.385-1.117-1.374"/><path fill="#fff" d="M357.818 1.106a1 1 0 0 1 0 .245v147.382a3.2 3.2 0 0 1-1.373 2.389l-127.664 73.691-.223.1a.7.7 0 0 1 0-.245V77.286a3.2 3.2 0 0 1 1.373-2.378l127.664-73.69q.107-.075.234-.101M357.896 0c-.304.01-.6.098-.859.257l-127.664 73.69a4.3 4.3 0 0 0-1.932 3.35V224.68c0 .871.436 1.373 1.117 1.373.304-.008.601-.097.86-.257l127.663-73.69a4.3 4.3 0 0 0 1.369-1.443 4.3 4.3 0 0 0 .563-1.907V1.374c0-.871-.436-1.385-1.117-1.374" opacity=".7"/><path fill="#BA68C8" d="m241.039 82.914 45.353-26.183v52.365l-45.353 26.183z"/><path fill="#fff" d="m241.039 82.914 45.353-26.183v52.365l-45.353 26.183z" opacity=".8"/><path fill="#fff" d="M279.595 69.783v15.743l-1.429.793v-4.812c0-2.658-2.155-3.562-4.835-2.021l-19.215 11.11c-2.669 1.54-4.835 4.945-4.835 7.603v4.812l-1.418.849V88.15z"/><path fill="#fff" d="M270.861 109.866c-2.322 1.34-4.209-.067-4.209-3.16v-25.2l-5.839 3.171v25.401c0 3.082-1.887 6.699-4.21 8.006l-4.22 2.434v1.675l22.676-13.097v-1.664z"/><path fill="#455A64" d="M295.426 54.152c0 1.451 1.306 1.864 2.903.949l44.125-25.513a5.83 5.83 0 0 0 2.903-4.299c0-1.44-1.307-1.864-2.903-.937l-44.092 25.456a5.8 5.8 0 0 0-2.936 4.344M295.426 69.783c0 1.451 1.306 1.876 2.903.949l44.091-25.457a5.82 5.82 0 0 0 2.903-4.298c0-1.44-1.306-1.865-2.903-.938l-44.091 25.456a5.83 5.83 0 0 0-2.903 4.288M295.426 85.526c0 1.452 1.306 1.876 2.903.949l44.091-25.457a5.82 5.82 0 0 0 2.903-4.287c0-1.452-1.306-1.876-2.903-.95L298.329 81.24a5.83 5.83 0 0 0-2.903 4.287M295.426 101.235c0 1.452 1.306 1.876 2.903.949l44.091-25.456a5.82 5.82 0 0 0 2.903-4.288c0-1.451-1.306-1.876-2.903-.949l-44.091 25.457a5.83 5.83 0 0 0-2.903 4.287M241.039 148.375c0 1.452 1.295 1.876 2.903.949l98.511-56.943a5.8 5.8 0 0 0 2.903-4.287c0-1.451-1.306-1.865-2.903-.95l-98.511 56.944a5.8 5.8 0 0 0-2.903 4.287M241.039 164.085c0 1.451 1.295 1.875 2.903.949l98.511-56.876a5.82 5.82 0 0 0 2.903-4.299c0-1.44-1.306-1.864-2.903-.938l-98.511 56.876a5.8 5.8 0 0 0-2.903 4.288M241.039 179.805c0 1.441 1.295 1.865 2.903.938l98.511-56.876a5.822 5.822 0 0 0 2.903-4.298c0-1.441-1.306-1.865-2.903-.938l-98.511 56.876a5.78 5.78 0 0 0-2.903 4.298"/><path fill="#BA68C8" d="m177.543 347.24 31.743-138.773 176.88-102.129-31.743 138.784z"/><path fill="#BA68C8" d="M220.82 219.331v102.932l40.82-23.57V195.772z"/><path fill="#000" d="M220.82 219.331v102.932l40.82-23.57V195.772z" opacity=".2"/><path fill="#fff" d="M295.503 383.237c-3.473-2.591-36.946-28.17-53.962-64.759-18.11-38.899-18.088-84.275-18.088-101.347v-.536l121.344-70.051c0 17.228 0 62.671 18.188 101.705 16.625 35.729 48.815 60.984 53.917 64.848z"/><path fill="#BA68C8" d="M344.241 147.549c0 17.954.346 62.526 18.244 100.979 16.067 34.5 46.615 59.31 53.414 64.546l-120.361 69.493c-4.701-3.54-36.913-28.695-53.482-64.279-18.088-38.788-18.088-84.074-18.088-101.123v-.213l120.228-69.414m1.117-1.932-122.461 70.71c0 16.067-.335 62.749 18.144 102.441 18.188 38.956 54.43 65.15 54.43 65.15l122.494-70.721s-36.287-26.194-54.419-65.15c-18.49-39.692-18.144-86.374-18.144-102.441z"/><path fill="#fff" d="M344.241 147.549c0 17.954.346 62.526 18.244 100.979 16.067 34.5 46.615 59.31 53.414 64.546l-120.361 69.493c-4.701-3.54-36.913-28.695-53.482-64.279-18.088-38.788-18.088-84.074-18.088-101.123v-.213l120.228-69.414m1.117-1.932-122.461 70.71c0 16.067-.335 62.749 18.144 102.441 18.188 38.956 54.43 65.15 54.43 65.15l122.494-70.721s-36.287-26.194-54.419-65.15c-18.49-39.692-18.144-86.374-18.144-102.441z" opacity=".7"/><path fill="#455A64" d="m331.5 169.321-38.721 22.331a5.49 5.49 0 0 0-2.814 4.232c.056 1.418 1.407 1.82 3.003.893l38.733-22.331a5.5 5.5 0 0 0 2.802-4.175c-.067-1.474-1.396-1.876-3.003-.95M332.325 184.562l-38.721 22.331a5.154 5.154 0 0 0-2.702 4.175c.123 1.374 1.53 1.742 3.127.815l38.732-22.33a5.09 5.09 0 0 0 2.668-4.165c-.111-1.384-1.496-1.719-3.104-.826M333.879 199.378l-38.732 22.331c-1.597.926-2.758 2.769-2.568 4.097s1.652 1.675 3.26.748l38.732-22.33c1.597-.927 2.736-2.758 2.535-4.087s-1.63-1.685-3.227-.759M336.202 213.748l-38.732 22.33c-1.596.927-2.702 2.736-2.434 4.031s1.787 1.585 3.35.659l38.721-22.331c1.608-.927 2.68-2.724 2.412-4.019-.268-1.296-1.664-1.597-3.317-.67M339.349 227.638l-38.732 22.33c-1.597.927-2.635 2.691-2.233 3.93s1.931 1.519 3.528.592l38.732-22.33c1.608-.927 2.613-2.68 2.233-3.931s-1.931-1.518-3.528-.591M343.436 241.024l-94.391 54.498c-1.596.927-2.568 2.646-2.132 3.841s2.099 1.418 3.695.491L345 245.357c1.607-.927 2.534-2.635 2.099-3.841-.436-1.206-2.122-1.418-3.663-.492M348.405 253.809l-94.38 54.498c-1.608.926-2.49 2.601-1.954 3.74s2.233 1.317 3.863.391l94.391-54.498c1.608-.927 2.468-2.601 1.932-3.74s-2.244-1.307-3.852-.391M354.602 265.99l-94.391 54.498c-1.608.926-2.401 2.556-1.765 3.639.637 1.083 2.457 1.195 4.065.268l94.324-54.497c1.596-.916 2.367-2.535 1.73-3.618-.636-1.083-2.4-1.217-3.963-.29M361.827 277.513l-94.38 54.486c-1.608.927-2.323 2.524-1.597 3.54s2.635 1.116 4.243.178l94.38-54.497c1.608-.927 2.3-2.501 1.574-3.529-.726-1.027-2.613-1.105-4.22-.178M370.066 288.466l-94.391 54.487c-1.596.926-2.233 2.478-1.429 3.45.804.971 2.78 1.016 4.388.089l94.391-54.52c1.597-.927 2.233-2.456 1.407-3.428-.826-.971-2.758-1.038-4.366-.078M379.166 298.894l-94.357 54.487c-1.608.926-2.233 2.445-1.296 3.349s2.926.927 4.522 0l94.391-54.497c1.608-.927 2.167-2.423 1.273-3.35s-2.903-.904-4.533.011M389.216 308.865l-94.392 54.486c-1.596.927-2.121 2.412-1.116 3.294s3.059.849 4.667-.078l94.313-54.498c1.597-.926 2.099-2.378 1.117-3.271s-3.026-.86-4.589.067"/><path fill="#BA68C8" d="m278.746 199.792-44.527 25.68c.491 16.133 2.333 39.402 9.077 62.838l44.538-25.68c-6.755-23.436-8.597-46.716-9.088-62.838"/><path fill="#fff" d="m278.746 199.792-44.527 25.68c.491 16.133 2.333 39.402 9.077 62.838l44.538-25.68c-6.755-23.436-8.597-46.716-9.088-62.838" opacity=".8"/><path fill="#BA68C8" d="M252.373 221.921a7.35 7.35 0 0 0-2.166-5.65l-15.988 9.223c.134 4.265.357 9.033.748 14.169 2.08.239 4.183-.15 6.04-1.117 6.286-2.88 11.366-10.35 11.366-16.625"/><path fill="#fff" d="M252.373 221.921a7.35 7.35 0 0 0-2.166-5.65l-15.988 9.223c.134 4.265.357 9.033.748 14.169 2.08.239 4.183-.15 6.04-1.117 6.286-2.88 11.366-10.35 11.366-16.625" opacity=".6"/><path fill="#BA68C8" d="M284.048 247.222c-2.969-3.741-9.01-15.297-11.589-20.332a1.11 1.11 0 0 0-1.097-.606 1.12 1.12 0 0 0-.969.795 122.5 122.5 0 0 0-4.823 29.309 42.4 42.4 0 0 1-9.457-10.517.991.991 0 0 0-1.775.312c-4.868 18.747-2.423 37.192-2.423 37.192l35.919-20.745c-1.497-5.181-2.736-10.339-3.786-15.408"/><path fill="#fff" d="M284.048 247.222c-2.969-3.741-9.01-15.297-11.589-20.332a1.11 1.11 0 0 0-1.097-.606 1.12 1.12 0 0 0-.969.795 122.5 122.5 0 0 0-4.823 29.309 42.4 42.4 0 0 1-9.457-10.517.991.991 0 0 0-1.775.312c-4.868 18.747-2.423 37.192-2.423 37.192l35.919-20.745c-1.497-5.181-2.736-10.339-3.786-15.408" opacity=".6"/></svg>