<svg width="24" height="24" viewBox="0 0 24 24" fill="none" xmlns="http://www.w3.org/2000/svg">
<path d="M12.0791 2.25001C7.28511 2.25001 3.34511 5.91301 2.96111 10.583H2.00011C1.85142 10.5829 1.70607 10.6271 1.58251 10.7098C1.45896 10.7925 1.36278 10.9101 1.30619 11.0476C1.24961 11.1851 1.23517 11.3363 1.26471 11.482C1.29425 11.6277 1.36644 11.7614 1.47211 11.866L3.15211 13.532C3.29257 13.6712 3.48234 13.7494 3.68011 13.7494C3.87788 13.7494 4.06765 13.6712 4.20811 13.532L5.88811 11.866C5.99378 11.7614 6.06597 11.6277 6.09551 11.482C6.12505 11.3363 6.11061 11.1851 6.05403 11.0476C5.99744 10.9101 5.90126 10.7925 5.77771 10.7098C5.65415 10.6271 5.5088 10.5829 5.36011 10.583H4.46711C4.84711 6.75201 8.10511 3.75001 12.0791 3.75001C13.3893 3.74748 14.6783 4.08107 15.8228 4.71888C16.9673 5.35669 17.929 6.27741 18.6161 7.39301C18.6664 7.47958 18.7335 7.55521 18.8134 7.61544C18.8934 7.67566 18.9846 7.71928 19.0817 7.7437C19.1788 7.76812 19.2798 7.77286 19.3787 7.75764C19.4777 7.74242 19.5725 7.70755 19.6578 7.65507C19.7431 7.6026 19.8169 7.53359 19.8751 7.45211C19.9333 7.37063 19.9745 7.27834 19.9965 7.18066C20.0184 7.08298 20.0205 6.9819 20.0028 6.88338C19.985 6.78486 19.9477 6.69089 19.8931 6.60701C19.0719 5.27342 17.9225 4.17267 16.5547 3.40988C15.1868 2.64709 13.6453 2.24775 12.0791 2.25001Z" fill="black"/>
<path opacity="0.5" d="M20.8409 10.467C20.7006 10.3284 20.5112 10.2506 20.3139 10.2506C20.1166 10.2506 19.9273 10.3284 19.7869 10.467L18.0999 12.133C17.994 12.2375 17.9215 12.3711 17.8917 12.5169C17.862 12.6627 17.8762 12.8141 17.9327 12.9518C17.9892 13.0894 18.0854 13.2072 18.209 13.29C18.3327 13.3729 18.4781 13.4171 18.6269 13.417H19.5259C19.1449 17.247 15.8749 20.25 11.8819 20.25C10.5676 20.2534 9.27432 19.9203 8.12517 19.2824C6.97601 18.6446 6.00925 17.7232 5.31694 16.606C5.26622 16.5201 5.19888 16.4452 5.11886 16.3857C5.03884 16.3261 4.94775 16.2832 4.85092 16.2592C4.75409 16.2353 4.65346 16.231 4.55492 16.2464C4.45639 16.2619 4.36193 16.2968 4.27707 16.3493C4.1922 16.4017 4.11865 16.4705 4.0607 16.5517C4.00276 16.6328 3.96158 16.7248 3.93959 16.822C3.91761 16.9193 3.91524 17.02 3.93264 17.1182C3.95005 17.2164 3.98686 17.3102 4.04094 17.394C4.86751 18.7287 6.02187 19.8296 7.39417 20.5921C8.76647 21.3545 10.311 21.7532 11.8809 21.75C16.6899 21.75 20.6469 18.09 21.0319 13.417H21.9999C22.1487 13.4171 22.2942 13.3729 22.4178 13.29C22.5415 13.2072 22.6376 13.0894 22.6941 12.9518C22.7506 12.8141 22.7649 12.6627 22.7351 12.5169C22.7054 12.3711 22.6329 12.2375 22.5269 12.133L20.8409 10.467Z" fill="black"/>
</svg>
