<?xml version="1.0" encoding="UTF-8"?>
<!DOCTYPE svg PUBLIC "-//W3C//DTD SVG 1.1//EN" "http://www.w3.org/Graphics/SVG/1.1/DTD/svg11.dtd">
<!-- Creator: CorelDRAW -->
<svg xmlns="http://www.w3.org/2000/svg" xml:space="preserve" width="7.5in" height="1.9in" style="shape-rendering:geometricPrecision; text-rendering:geometricPrecision; image-rendering:optimizeQuality; fill-rule:evenodd; clip-rule:evenodd"
viewBox="0 0 7.5 1.9"
 xmlns:xlink="http://www.w3.org/1999/xlink">
 <defs>
  <style type="text/css">
   <![CDATA[
    .str0 {stroke:#727271;stroke-width:0.0138898}
    .fil0 {fill:#1C1B17;fill-rule:nonzero}
    .fil1 {fill:#ED1C24;fill-rule:nonzero}
   ]]>
  </style>
 </defs>
 <g id="Layer_x0020_1">
  <metadata id="CorelCorpID_0Corel-Layer"/>
  <path class="fil0" d="M1.73019 1.20589c0.0706417,-0.186004 0.0570945,-0.363319 -0.0209173,-0.498256 0.0133465,0.0894646 0.00257087,0.188724 -0.036189,0.290921 -0.124091,0.326957 -0.48822,0.559091 -0.813165,0.518512l-0.488071 -0.0616732 0.398906 -1.06111 -0.0917913 -0.0192638 -0.55778 1.31855 0 0.000645669 0.15363 0.0192323 7.87402e-005 -0.00023622 0.55248 0.0683622c0.360819,0.0451024 0.764953,-0.21263 0.902819,-0.575681z"/>
  <path class="fil1" d="M1.56318 0.13615c-0.142752,-0.0385236 -0.577858,-0.0876496 -0.577858,-0.0876496l-0.00073622 0.00217717 -0.419272 1.10424 0.0918386 0.0192047 0.371339 -0.851866 0.344626 0.0429882c0.420327,0.0458976 0.625169,0.463736 0.46598,0.893362 -0.0511535,0.137866 -0.147169,0.282055 -0.245276,0.350843 0.165917,-0.0732913 0.342547,-0.20526 0.429945,-0.435327 0.16552,-0.436122 -0.0273937,-0.920929 -0.460587,-1.03797z"/>
  <path class="fil1" d="M1.39934 0.917618c0,-0.108165 -0.086,-0.19578 -0.192059,-0.19578 -0.106177,0 -0.192154,0.0876142 -0.192154,0.19578 0,0.10815 0.0859764,0.195799 0.192154,0.195799 0.106059,0 0.192059,-0.0876496 0.192059,-0.195799z"/>
  <polygon class="fil0" points="2.29382,1.00107 2.44671,1.00107 2.44671,1.40346 2.52694,1.40346 2.52694,1.00107 2.67775,1.00107 2.67775,0.93076 2.29382,0.93076 "/>
  <path class="fil0" d="M3.01215 1.19214c0.0706969,0 0.109634,-0.0340039 0.109634,-0.0956811l0 -0.0669724c0,-0.0645866 -0.0383976,-0.0987283 -0.111024,-0.0987283l-0.27776 0 0 0.472697 0.0802598 0 0 -0.402382 0.189866 0c0.0279094,0 0.0397598,0.0107126 0.0397598,0.035815l0 0.0589528c0,0.024563 -0.0114921,0.0345472 -0.0397598,0.0345472l-0.189531 0 0 0.0535512 0.259795 0.219516 0.110043 0 -0.252213 -0.211315 0.0809291 0z"/>
  <path class="fil0" d="M3.457 1.0281l0.0913858 0.19876 -0.181433 0 0.0900472 -0.19876zm-0.0371102 -0.0973425l-0.217543 0.472697 0.0845748 0 0.0495236 -0.109362 0.242528 0 0.0500079 0.109362 0.0888937 0 -0.222657 -0.472697 -0.0753268 0z"/>
  <polygon class="fil0" points="4.09219,1.2687 3.83458,0.93076 3.75592,0.93076 3.75592,1.40346 3.83479,1.40346 3.83479,1.05471 4.10355,1.40346 4.17109,1.40346 4.17109,0.93076 4.09219,0.93076 "/>
  <path class="fil0" d="M4.50898 1.12795l-0.149417 0c-0.0301929,0 -0.0425315,-0.0112795 -0.0425315,-0.0388543l0 -0.0430236c0,-0.0315315 0.0145984,-0.0449961 0.0488031,-0.0449961l0.23885 0 0 -0.070315 -0.244402 0c-0.0803622,0 -0.122815,0.0381654 -0.122815,0.110406l0 0.0515945c0,0.0662165 0.0388819,0.101197 0.112382,0.101197l0.15011 0c0.0298622,0 0.0425591,0.0116496 0.0425591,0.0388622l0 0.0552953c0,0.0315551 -0.0148031,0.0450197 -0.0495236,0.0450197l-0.252059 0 0 0.0703228 0.257634 0c0.0803386,0 0.122795,-0.0381732 0.122795,-0.110413l0 -0.0638898c0,-0.0662244 -0.0388583,-0.101205 -0.112386,-0.101205z"/>
  <polygon class="fil0" points="4.94045,1.30665 4.77551,0.93076 4.68986,0.93076 4.68986,1.40346 4.76593,1.40346 4.76593,1.09236 4.90553,1.40346 4.97492,1.40346 5.11164,1.09389 5.11164,1.40346 5.1884,1.40346 5.1884,0.93076 5.10341,0.93076 "/>
  <polygon class="fil0" points="5.26938,1.40346 5.34965,1.40346 5.34965,0.93076 5.26938,0.93076 "/>
  <path class="fil0" d="M5.68756 1.12795l-0.149417 0c-0.030252,0 -0.0425866,-0.0112795 -0.0425866,-0.0388543l0 -0.0430236c0,-0.0315315 0.0145984,-0.0449961 0.0488031,-0.0449961l0.238878 0 0 -0.070315 -0.244402 0c-0.0803386,0 -0.122846,0.0381654 -0.122846,0.110406l0 0.0515945c0,0.0662165 0.0388622,0.101197 0.112386,0.101197l0.150134 0c0.029815,0 0.0425354,0.0116496 0.0425354,0.0388622l0 0.0552953c0,0.0315551 -0.0148031,0.0450197 -0.0494724,0.0450197l-0.25211 0 0 0.0703228 0.25761 0c0.0803661,0 0.122819,-0.0381732 0.122819,-0.110413l0 -0.0638898c0,-0.0662244 -0.0388583,-0.101205 -0.112331,-0.101205z"/>
  <path class="fil0" d="M6.12599 1.12795l-0.149362 0c-0.030248,0 -0.0425827,-0.0112795 -0.0425827,-0.0388543l0 -0.0430236c0,-0.0315315 0.0145945,-0.0449961 0.0488543,-0.0449961l0.238795 0 0 -0.070315 -0.244429 0c-0.0803307,0 -0.122787,0.0381654 -0.122787,0.110406l0 0.0515945c0,0.0662165 0.0388543,0.101197 0.112409,0.101197l0.150059 0c0.0298622,0 0.0425827,0.0116496 0.0425827,0.0388622l0 0.0552953c0,0.0315551 -0.0148031,0.0450197 -0.0495236,0.0450197l-0.252035 0 0 0.0703228 0.257587 0c0.0803622,0 0.122819,-0.0381732 0.122819,-0.110413l0 -0.0638898c0,-0.0662244 -0.0388583,-0.101205 -0.112386,-0.101205z"/>
  <polygon class="fil0" points="6.30687,1.40346 6.38714,1.40346 6.38714,0.93076 6.30687,0.93076 "/>
  <path class="fil0" d="M6.79675 1.05223l0 0.22974c0,0.0358504 -0.0168583,0.0511614 -0.0564606,0.0511614l-0.141039 0c-0.0390354,0 -0.056437,-0.0157795 -0.056437,-0.0511614l0 -0.22974c0,-0.0353701 0.0174016,-0.0511575 0.056437,-0.0511575l0.141039 0c0.0396024,0 0.0564606,0.0153189 0.0564606,0.0511575zm-0.046 -0.121472l-0.161217 0c-0.0830591,0 -0.126976,0.039437 -0.126976,0.114106l0 0.244476c0,0.0746339 0.0439173,0.114114 0.126976,0.114114l0.161217 0c0.0830591,0 0.12698,-0.0394803 0.12698,-0.114114l0 -0.244476c0,-0.0746693 -0.0439213,-0.114106 -0.12698,-0.114106z"/>
  <polygon class="fil0" points="7.28946,0.93076 7.28946,1.2687 7.03182,0.93076 6.95315,0.93076 6.95315,1.40346 7.032,1.40346 7.032,1.05471 7.30079,1.40346 7.3683,1.40346 7.3683,0.93076 "/>
  <path class="fil0" d="M2.5555 0.284429l-0.261673 0 0 0.472701 0.0718898 0 0 -0.409752 0.184091 0c0.0536575,0 0.0786732,0.0224921 0.0786732,0.0708228l0 0.20515c0,0.0482913 -0.0250157,0.0708228 -0.0786732,0.0708228l-0.183752 0 0 0.0629567 0.189445 0c0.0961496,0 0.144929,-0.0439488 0.144929,-0.13063l0 -0.211461c0,-0.0866811 -0.0487795,-0.13061 -0.144929,-0.13061z"/>
  <polygon class="fil0" points="3.08914,0.48398 2.84549,0.48398 2.84549,0.284429 2.77354,0.284429 2.77354,0.75713 2.84549,0.75713 2.84549,0.544429 3.08914,0.544429 3.08914,0.75713 3.16105,0.75713 3.16105,0.284429 3.08914,0.284429 "/>
  <path class="fil0" d="M3.57452 0.403807l0 0.233945c0,0.0390039 -0.0192441,0.0564213 -0.0623583,0.0564213l-0.143638 0c-0.0425945,0 -0.0624094,-0.0179213 -0.0624094,-0.0564213l0 -0.233945c0,-0.0385079 0.019815,-0.0564291 0.0624094,-0.0564291l0.143638 0c0.0431142,0 0.0623583,0.0174173 0.0623583,0.0564291zm-0.0517756 -0.119378l-0.164134 0c-0.0825709,0 -0.124402,0.037626 -0.124402,0.111862l0 0.248976c0,0.0742323 0.0418307,0.111862 0.124402,0.111862l0.164134 0c0.0813937,0 0.12439,-0.0386811 0.12439,-0.111862l0 -0.248976c0,-0.0731811 -0.0429961,-0.111862 -0.12439,-0.111862z"/>
  <path class="fil0" d="M4.05495 0.403807l0 0.233945c0,0.0390039 -0.019248,0.0564213 -0.0623976,0.0564213l-0.143634 0c-0.0425315,0 -0.062374,-0.0179213 -0.062374,-0.0564213l0 -0.233945c0,-0.0385079 0.0198425,-0.0564291 0.062374,-0.0564291l0.143634 0c0.0431496,0 0.0623976,0.0174173 0.0623976,0.0564291zm-0.0517835 -0.119378l-0.164118 0c-0.0825709,0 -0.124461,0.037626 -0.124461,0.111862l0 0.248976c0,0.0742323 0.0418898,0.111862 0.124461,0.111862l0.164118 0c0.0814173,0 0.124409,-0.0386811 0.124409,-0.111862l0 -0.248976c0,-0.0731811 -0.0429921,-0.111862 -0.124409,-0.111862z"/>
  <polygon class="fil0" points="4.1625,0.284429 4.1625,0.347378 4.31819,0.347378 4.31819,0.75713 4.3901,0.75713 4.3901,0.347378 4.54365,0.347378 4.54365,0.284429 "/>
  <path class="fil0 str0" d="M2.32087 1.59298l0 0.0948346 0.096878 0 0 -0.0948346 0.0198976 0 0 0.217024 -0.0198976 0 0 -0.101079 -0.096878 0 0 0.101079 -0.0198976 0 0 -0.217024 0.0198976 0zm0.231457 0.0618386c0.0284488,0 0.0426772,0.0165472 0.0426772,0.0496496l0 0.0558858c0,0.0330984 -0.0142283,0.0496496 -0.0426772,0.0496496l-0.0481811 0c-0.0242598,0 -0.0363898,-0.0136732 -0.0363898,-0.0410236l0 -0.0121929c0,-0.0229882 0.0115197,-0.0344843 0.0345591,-0.0344843l0.0631024 0 0 0.0175394 -0.058126 0c-0.0141378,0 -0.0212087,0.00683858 -0.0212087,0.0205118l0 0.0071378c0,0.0158543 0.00715748,0.0237835 0.0214685,0.0237835l0.0416299 0c0.0178071,0 0.0267087,-0.0105039 0.0267087,-0.0315157l0 -0.0532126c0,-0.0204134 -0.00864173,-0.030622 -0.0259213,-0.030622l-0.0780236 0 0 -0.0211063 0.0803819 0zm0.153169 0.000295276l0 0.0214055 -0.0335157 0c-0.0179803,0 -0.0269685,0.0106063 -0.0269685,0.031811l0 0.101673 -0.0191142 0 0 -0.10524c0,-0.0330984 0.0142283,-0.0496496 0.0426772,-0.0496496l0.0369213 0zm0.111535 -0.000295276c0.0284528,0 0.0426772,0.0165472 0.0426772,0.0496496l0 0.105535 -0.0191142 0 0 -0.101972c0,-0.0210079 -0.0090748,-0.0315118 -0.0272283,-0.0315118l-0.0649331 0 0 0.133484 -0.0191102 0 0 -0.155185 0.0877087 0zm0.163382 0c0.0244331,0 0.0366535,0.0136732 0.0366535,0.0410236l0 0.0124882c0,0.0227913 -0.0115197,0.034189 -0.0345591,0.034189l-0.0633622 0 0 -0.0175433 0.058122 0c0.0141417,0 0.0212087,-0.00683465 0.0212087,-0.0205079l0 -0.0071378c0,-0.0158543 -0.00715354,-0.0237835 -0.0214685,-0.0237835l-0.0413661 0c-0.0179843,0 -0.0269724,0.0105039 -0.0269724,0.0315118l0 0.0532165c0,0.0204134 0.00872835,0.030622 0.026185,0.030622l0.0777638 0 0 0.0211063 -0.080122 0c-0.0284488,0 -0.0426772,-0.0165512 -0.0426772,-0.0496496l0 -0.0558858c0,-0.0331024 0.0142283,-0.0496496 0.0426772,-0.0496496l0.0479173 0zm0.175161 0l0 0.0187283 -0.0775039 0c-0.0116929,0 -0.0175394,0.00614567 -0.0175394,0.0184331l0 0.012185c0,0.0112992 0.00541339,0.0169488 0.0162323,0.0169488l0.0549843 0c0.0198976,0 0.0298504,0.0106024 0.0298504,0.031811l0 0.0225945c0,0.0229882 -0.0107362,0.0344843 -0.0322087,0.0344843l-0.0861417 0 0 -0.0187283 0.0811693 0c0.0123937,0 0.0185906,-0.00614567 0.0185906,-0.0184331l0 -0.0175394c0,-0.0112992 -0.00532677,-0.0169488 -0.0159724,-0.0169488l-0.0549843 0c-0.0200748,0 -0.0301063,-0.0105984 -0.0301063,-0.0318071l0 -0.0175394c0,-0.0227913 0.0104685,-0.034189 0.0314134,-0.034189l0.0822165 0zm0.14165 0l0 0.0187283 -0.0775039 0c-0.0116929,0 -0.0175394,0.00614567 -0.0175394,0.0184331l0 0.012185c0,0.0112992 0.00540945,0.0169488 0.0162323,0.0169488l0.0549843 0c0.0198976,0 0.0298504,0.0106024 0.0298504,0.031811l0 0.0225945c0,0.0229882 -0.0107402,0.0344843 -0.0322087,0.0344843l-0.0861417 0 0 -0.0187283 0.0811654 0c0.0123937,0 0.0185906,-0.00614567 0.0185906,-0.0184331l0 -0.0175394c0,-0.0112992 -0.00532283,-0.0169488 -0.0159724,-0.0169488l-0.0549803 0c-0.0200748,0 -0.0301102,-0.0105984 -0.0301102,-0.0318071l0 -0.0175394c0,-0.0227913 0.0104685,-0.034189 0.0314173,-0.034189l0.0822165 0zm0.0521024 0.00148819l0 0.153697 -0.0191142 0 0 -0.153697 0.0191142 0zm0 -0.0654055l0 0.0344843 -0.0191142 0 0 -0.0344843 0.0191142 0zm0.120437 0.0639173c0.0284528,0 0.0426811,0.0165472 0.0426811,0.0496496l0 0.105535 -0.0191142 0 0 -0.101972c0,-0.0210079 -0.0090748,-0.0315118 -0.0272283,-0.0315118l-0.064937 0 0 0.133484 -0.0191102 0 0 -0.155185 0.0877087 0zm0.160504 0c0.0284488,0 0.0426732,0.0165472 0.0426732,0.0496496l0 0.105535c0,0.0350787 -0.0142244,0.052622 -0.0426732,0.052622l-0.0625787 0 0 -0.0211063 0.0589094 0c0.0181575,0 0.0272323,-0.0112992 0.0272323,-0.0338937l0 -0.0995945c0,-0.0210079 -0.0090748,-0.0315118 -0.0272323,-0.0315118l-0.0377008 0c-0.0181535,0 -0.0272323,0.0105039 -0.0272323,0.0315118l0 0.0425157c0,0.0198189 0.00907874,0.0297283 0.0272323,0.0297283l0.0544606 0 0 0.0202126 -0.058126 0c-0.0284528,0 -0.0426772,-0.0155551 -0.0426772,-0.0466732l0 -0.0493465c0,-0.0331024 0.0142244,-0.0496496 0.0426772,-0.0496496l0.0450354 0zm0.258681 -0.0618386l0 0.0222953 -0.0848307 0c-0.0157126,0 -0.023563,0.00922047 -0.023563,0.0276535l0 0.0208071c0,0.0164528 0.00706693,0.0246772 0.0212087,0.0246772l0.0562913 0c0.0247874,0 0.0371811,0.0143661 0.0371811,0.0431063l0 0.0309173c0,0.0317126 -0.0137047,0.0475669 -0.0411102,0.0475669l-0.0919016 0 0 -0.0222953 0.0898071 0c0.0158858,0 0.0238307,-0.00921654 0.0238307,-0.0276496l0 -0.0267559c0,-0.0164488 -0.00707087,-0.0246772 -0.0212087,-0.0246772l-0.0565551 0c-0.0247913,0 -0.0371811,-0.0143701 -0.0371811,-0.0431063l0 -0.0249724c0,-0.0317126 0.0137008,-0.0475669 0.0411063,-0.0475669l0.0869252 0zm0.116252 0.0618386c0.0284528,0 0.0426772,0.0165472 0.0426772,0.0496496l0 0.0558858c0,0.0330984 -0.0142244,0.0496496 -0.0426772,0.0496496l-0.0481772 0c-0.0242598,0 -0.0363898,-0.0136732 -0.0363898,-0.0410236l0 -0.0121929c0,-0.0229882 0.0115197,-0.0344843 0.0345551,-0.0344843l0.0631024 0 0 0.0175394 -0.058122 0c-0.0141378,0 -0.0212087,0.00683858 -0.0212087,0.0205118l0 0.0071378c0,0.0158543 0.00715354,0.0237835 0.0214685,0.0237835l0.0416299 0c0.0178071,0 0.0267087,-0.0105039 0.0267087,-0.0315157l0 -0.0532126c0,-0.0204134 -0.00864173,-0.030622 -0.0259213,-0.030622l-0.0780236 0 0 -0.0211063 0.080378 0zm0.122795 -0.0639173l0 0.0181339 -0.0130906 0c-0.0122205,0 -0.0183268,0.00713386 -0.0183268,0.0214055l0 0.024378 0.0303701 0 0 0.0193228 -0.0303701 0 0 0.135862 -0.0188504 0 0 -0.180157c0,-0.0259646 0.0110827,-0.0389449 0.033252,-0.0389449l0.0170157 0zm0.112067 0.0639173c0.0244331,0 0.0366535,0.0136732 0.0366535,0.0410236l0 0.0124882c0,0.0227913 -0.0115236,0.034189 -0.0345591,0.034189l-0.0633622 0 0 -0.0175433 0.058122 0c0.0141417,0 0.0212087,-0.00683465 0.0212087,-0.0205079l0 -0.0071378c0,-0.0158543 -0.00715354,-0.0237835 -0.0214685,-0.0237835l-0.0413701 0c-0.0179803,0 -0.0269685,0.0105039 -0.0269685,0.0315118l0 0.0532165c0,0.0204134 0.00872835,0.030622 0.0261811,0.030622l0.0777638 0 0 0.0211063 -0.0801181 0c-0.0284488,0 -0.0426772,-0.0165512 -0.0426772,-0.0496496l0 -0.0558858c0,-0.0331024 0.0142283,-0.0496496 0.0426772,-0.0496496l0.0479173 0zm0.10211 -0.0505394l0 0.0505394 0.0295866 0 0 0.0193228 -0.0295866 0 0 0.135862 -0.0191142 0 0 -0.135862 -0.0256575 0 0 -0.0193228 0.0256575 0 0 -0.0505394 0.0191142 0zm0.0717402 0.0505394l0 0.0957283c0,0.0198189 0.00898819,0.0297283 0.0269685,0.0297283l0.0651969 0 0 -0.125457 0.0191102 0 0 0.155185c0,0.0350787 -0.0142244,0.052622 -0.0426772,0.052622l-0.0625748 0 0 -0.0211063 0.0589094 0c0.0181535,0 0.0272323,-0.0112992 0.0272323,-0.0338937l0 -0.0071378 -0.0685984 0c-0.0284528,0 -0.0426811,-0.0155551 -0.0426811,-0.0466732l0 -0.0989961 0.0191142 0zm0.159717 0.120402l0 0.031811 -0.00628346 0.042811 -0.00968898 0 0.00314173 -0.0407283 -0.0062874 0 0 -0.0338937 0.0191181 0zm0.20998 -0.18224l0 0.0222953 -0.0989685 0 0 0.0737323 0.0974016 0 0 0.0214055 -0.0974016 0 0 0.0772953 0.10002 0 0 0.0222953 -0.119917 0 0 -0.217024 0.118866 0zm0.0479173 -0.00207874l0 0.219102 -0.0191142 0 0 -0.219102 0.0191142 0zm0.121488 0.0639173c0.024437,0 0.0366535,0.0136732 0.0366535,0.0410236l0 0.0124882c0,0.0227913 -0.0115197,0.034189 -0.0345591,0.034189l-0.0633622 0 0 -0.0175433 0.058126 0c0.0141378,0 0.0212087,-0.00683465 0.0212087,-0.0205079l0 -0.0071378c0,-0.0158543 -0.00715748,-0.0237835 -0.0214724,-0.0237835l-0.0413661 0c-0.0179803,0 -0.0269685,0.0105039 -0.0269685,0.0315118l0 0.0532165c0,0.0204134 0.00872441,0.030622 0.0261811,0.030622l0.0777598 0 0 0.0211063 -0.0801181 0c-0.0284488,0 -0.0426772,-0.0165512 -0.0426772,-0.0496496l0 -0.0558858c0,-0.0331024 0.0142283,-0.0496496 0.0426772,-0.0496496l0.0479173 0zm0.168354 0l0 0.0217008 -0.0573386 0c-0.0181535,0 -0.0272323,0.0105039 -0.0272323,0.0315118l0 0.0487559c0,0.0212087 0.00907874,0.031811 0.0272323,0.031811l0.0573386 0 0 0.0214055 -0.0610079 0c-0.0284488,0 -0.0426732,-0.0165512 -0.0426732,-0.0496496l0 -0.0558858c0,-0.0331024 0.0142244,-0.0496496 0.0426732,-0.0496496l0.0610079 0zm0.0644094 -0.0505394l0 0.0505394 0.0295866 0 0 0.0193228 -0.0295866 0 0 0.135862 -0.0191142 0 0 -0.135862 -0.0256614 0 0 -0.0193228 0.0256614 0 0 -0.0505394 0.0191142 0zm0.133268 0.0508346l0 0.0214055 -0.0335118 0c-0.0179803,0 -0.0269685,0.0106063 -0.0269685,0.031811l0 0.101673 -0.0191142 0 0 -0.10524c0,-0.0330984 0.0142244,-0.0496496 0.0426772,-0.0496496l0.0369173 0zm0.0429409 0.00119291l0 0.153697 -0.0191142 0 0 -0.153697 0.0191142 0zm0 -0.0654055l0 0.0344843 -0.0191142 0 0 -0.0344843 0.0191142 0zm0.0819528 0l0 0.0181339 -0.0130945 0c-0.0122205,0 -0.0183268,0.00713386 -0.0183268,0.0214055l0 0.024378 0.030374 0 0 0.0193228 -0.030374 0 0 0.135862 -0.0188504 0 0 -0.180157c0,-0.0259646 0.0110866,-0.0389449 0.033252,-0.0389449l0.0170197 0zm0.0413701 0.0639173l0 0.0957283c0,0.0198189 0.00898819,0.0297283 0.0269646,0.0297283l0.0651969 0 0 -0.125457 0.0191142 0 0 0.155185c0,0.0350787 -0.0142283,0.052622 -0.0426772,0.052622l-0.0625787 0 0 -0.0211063 0.0589094 0c0.0181535,0 0.0272323,-0.0112992 0.0272323,-0.0338937l0 -0.0071378 -0.0685984 0c-0.0284528,0 -0.0426772,-0.0155551 -0.0426772,-0.0466732l0 -0.0989961 0.0191142 0zm0.163378 0.00148819l0 0.153697 -0.0191142 0 0 -0.153697 0.0191142 0zm0 -0.0654055l0 0.0344843 -0.0191142 0 0 -0.0344843 0.0191142 0zm0.120437 0.0639173c0.0284567,0 0.0426811,0.0165472 0.0426811,0.0496496l0 0.105535 -0.0191142 0 0 -0.101972c0,-0.0210079 -0.0090748,-0.0315118 -0.0272283,-0.0315118l-0.064937 0 0 0.133484 -0.0191102 0 0 -0.155185 0.0877087 0zm0.1605 0c0.0284528,0 0.0426811,0.0165472 0.0426811,0.0496496l0 0.105535c0,0.0350787 -0.0142283,0.052622 -0.0426811,0.052622l-0.0625748 0 0 -0.0211063 0.0589134 0c0.0181535,0 0.0272283,-0.0112992 0.0272283,-0.0338937l0 -0.0995945c0,-0.0210079 -0.0090748,-0.0315118 -0.0272283,-0.0315118l-0.0377047 0c-0.0181496,0 -0.0272323,0.0105039 -0.0272323,0.0315118l0 0.0425157c0,0.0198189 0.00908268,0.0297283 0.0272323,0.0297283l0.0544606 0 0 0.0202126 -0.058126 0c-0.0284528,0 -0.0426772,-0.0155551 -0.0426772,-0.0466732l0 -0.0493465c0,-0.0331024 0.0142244,-0.0496496 0.0426772,-0.0496496l0.0450315 0zm0.26026 -0.0618386l0 0.0222953 -0.0568189 0 0 0.194728 -0.0198976 0 0 -0.194728 -0.0576024 0 0 -0.0222953 0.134319 0zm0.0424173 -0.00207874l0 0.0639173 0.0685945 0c0.0284528,0 0.0426772,0.0165472 0.0426772,0.0496496l0 0.105535 -0.0191102 0 0 -0.101972c0,-0.0210079 -0.0090748,-0.0315118 -0.0272323,-0.0315118l-0.0649291 0 0 0.133484 -0.0191142 0 0 -0.219102 0.0191142 0zm0.231976 0.0639173c0.024437,0 0.0366575,0.0136732 0.0366575,0.0410236l0 0.0124882c0,0.0227913 -0.0115236,0.034189 -0.034563,0.034189l-0.0633583 0 0 -0.0175433 0.058122 0c0.0141378,0 0.0212047,-0.00683465 0.0212047,-0.0205079l0 -0.0071378c0,-0.0158543 -0.00715354,-0.0237835 -0.0214685,-0.0237835l-0.0413661 0c-0.0179803,0 -0.0269685,0.0105039 -0.0269685,0.0315118l0 0.0532165c0,0.0204134 0.00872441,0.030622 0.0261811,0.030622l0.0777638 0 0 0.0211063 -0.080122 0c-0.0284449,0 -0.0426732,-0.0165512 -0.0426732,-0.0496496l0 -0.0558858c0,-0.0331024 0.0142283,-0.0496496 0.0426732,-0.0496496l0.0479173 0zm0.2435 -0.0618386l0 0.0222953 -0.0953071 0 0 0.077 0.0939961 0 0 0.0214055 -0.0939961 0 0 0.0963228 -0.0198976 0 0 -0.217024 0.115205 0zm0.0434646 0.0621339l0 0.101673c0,0.0212087 0.00898819,0.031811 0.0269646,0.031811l0.0374409 0c0.0181535,0 0.0272323,-0.0106024 0.0272323,-0.031811l0 -0.101673 0.0188504 0 0 0.10524c0,0.0330984 -0.0142244,0.0496496 -0.0426811,0.0496496l-0.0442441 0c-0.0284528,0 -0.0426772,-0.0165512 -0.0426772,-0.0496496l0 -0.10524 0.0191142 0zm0.178039 -0.0508346l0 0.0505394 0.0295866 0 0 0.0193228 -0.0295866 0 0 0.135862 -0.0191142 0 0 -0.135862 -0.0256575 0 0 -0.0193228 0.0256575 0 0 -0.0505394 0.0191142 0zm0.0717441 0.0508346l0 0.101673c0,0.0212087 0.00898819,0.031811 0.0269646,0.031811l0.0374409 0c0.0181535,0 0.0272323,-0.0106024 0.0272323,-0.031811l0 -0.101673 0.0188504 0 0 0.10524c0,0.0330984 -0.0142283,0.0496496 -0.0426772,0.0496496l-0.044248 0c-0.0284528,0 -0.0426772,-0.0165512 -0.0426772,-0.0496496l0 -0.10524 0.0191142 0zm0.222028 0l0 0.0214055 -0.0335118 0c-0.0179843,0 -0.0269724,0.0106063 -0.0269724,0.031811l0 0.101673 -0.0191142 0 0 -0.10524c0,-0.0330984 0.0142244,-0.0496496 0.0426811,-0.0496496l0.0369173 0zm0.112587 -0.000295276c0.0244331,0 0.0366535,0.0136732 0.0366535,0.0410236l0 0.0124882c0,0.0227913 -0.0115236,0.034189 -0.0345591,0.034189l-0.0633661 0 0 -0.0175433 0.058126 0c0.0141378,0 0.0212087,-0.00683465 0.0212087,-0.0205079l0 -0.0071378c0,-0.0158543 -0.00715354,-0.0237835 -0.0214685,-0.0237835l-0.0413701 0c-0.0179803,0 -0.0269685,0.0105039 -0.0269685,0.0315118l0 0.0532165c0,0.0204134 0.00872835,0.030622 0.0261811,0.030622l0.0777638 0 0 0.0211063 -0.0801181 0c-0.0284528,0 -0.0426772,-0.0165512 -0.0426772,-0.0496496l0 -0.0558858c0,-0.0331024 0.0142244,-0.0496496 0.0426772,-0.0496496l0.0479173 0z"/>
 </g>
</svg>
